<?xml version="1.0" encoding="UTF-8" standalone="no"?>
<svg
   height="128"
   width="128"
   version="1.1"
   id="svg26"
   sodipodi:docname="icon.svg"
   xml:space="preserve"
   inkscape:version="1.2.1 (9c6d41e, 2022-07-14)"
   xmlns:inkscape="http://www.inkscape.org/namespaces/inkscape"
   xmlns:sodipodi="http://sodipodi.sourceforge.net/DTD/sodipodi-0.dtd"
   xmlns:xlink="http://www.w3.org/1999/xlink"
   xmlns="http://www.w3.org/2000/svg"
   xmlns:svg="http://www.w3.org/2000/svg"><defs
     id="defs30"><clipPath
       clipPathUnits="userSpaceOnUse"
       id="clipPath381"><g
         inkscape:label="Clip"
         id="use383"
         style="display:inline"><g
           transform="translate(32,32)"
           id="g1896"
           style="display:inline"
           inkscape:label="g6" /></g></clipPath><clipPath
       clipPathUnits="userSpaceOnUse"
       id="clipPath1927"><use
         x="0"
         y="0"
         xlink:href="#g1923"
         id="use1929" /></clipPath></defs><sodipodi:namedview
     id="namedview28"
     pagecolor="#ffffff"
     bordercolor="#000000"
     borderopacity="0.25"
     inkscape:showpageshadow="2"
     inkscape:pageopacity="0.0"
     inkscape:pagecheckerboard="0"
     inkscape:deskcolor="#d1d1d1"
     showgrid="false"
     inkscape:zoom="3.2452422"
     inkscape:cx="-4.3140077"
     inkscape:cy="79.963215"
     inkscape:window-width="1920"
     inkscape:window-height="991"
     inkscape:window-x="0"
     inkscape:window-y="0"
     inkscape:window-maximized="1"
     inkscape:current-layer="svg26" /><g
     id="g1925"
     clip-path="url(#clipPath1927)"><g
       inkscape:label="Clip"
       id="g1923"
       sodipodi:insensitive="true"><path
         id="path1920"
         style="display:inline;fill:none;fill-opacity:1;stroke:#363d52;stroke-width:6.17335;stroke-linecap:round;stroke-miterlimit:3.2;stroke-dasharray:none;stroke-opacity:1;paint-order:markers fill stroke"
         d="M 19.80531,3.1285845 C 13.826886,3.3602785 8.2067139,6.8574146 5.3930477,11.881015 3.6104812,14.908648 2.9555588,18.43044 3.1081561,21.876984 c 0.00877,28.738976 -0.017547,57.47837 0.013157,86.217086 0.1230417,6.15079 3.8814633,12.14617 9.6401889,14.95253 2.893102,1.48854 6.224137,1.9804 9.478293,1.84467 28.56232,-0.009 57.125115,0.0175 85.687145,-0.0132 6.10854,-0.12975 11.88739,-3.70117 14.72613,-8.84305 1.77321,-3.03617 2.39243,-6.56461 2.23712,-10.01097 -0.009,-28.737021 0.019,-57.474432 -0.0142,-86.211187 -0.1587,-6.119498 -3.91024,-12.0697131 -9.64183,-14.8603545 -2.89271,-1.4851298 -6.2208,-1.9804038 -9.47356,-1.8437707 -28.562336,0.00871 -57.12513,-0.01744 -85.687156,0.01307 -0.08938,0.00221 -0.17877,0.00444 -0.268154,0.00664 z" /></g><rect
       style="display:inline;fill:#363d52;fill-opacity:1;stroke:none;stroke-width:6.08033;stroke-linecap:round;stroke-miterlimit:3.2;stroke-dasharray:none;stroke-opacity:1;paint-order:markers fill stroke"
       id="rect2005"
       width="128"
       height="128"
       x="-128"
       y="0"
       rx="14.843148"
       ry="15.375097"
       transform="scale(-1,1)"
       sodipodi:insensitive="true" /><g
       id="g1672"
       transform="matrix(0.34098876,0,0,0.34099199,-453.60343,-245.25551)"
       style="display:inline"><ellipse
         style="display:inline;fill:#999999;stroke-width:0.766339"
         id="ellipse1664"
         cx="1458.843"
         cy="999.23053"
         transform="matrix(0.99807897,-0.06195455,0.06195572,0.9980789,0,0)"
         rx="105.62767"
         ry="105.62668" /><ellipse
         style="display:inline;fill:#414042;fill-opacity:1;stroke-width:1.13682"
         id="ellipse1666"
         cx="1517.9486"
         cy="906.92896"
         rx="76.069313"
         ry="76.068588" /><path
         style="display:inline;fill:#d6d6d6;fill-opacity:1"
         id="path1668"
         d="m 1459.4026,830.90949 c 28.4465,26.38312 100.1152,-32.37192 107.6213,5.69289 7.5061,38.06482 -81.1024,10.91521 -97.4037,46.12226 -16.3014,35.20705 61.7248,85.21173 27.8425,104.11312 -33.8823,18.90144 -35.443,-73.75993 -73.9643,-78.38389 -38.5213,-4.62396 -61.9671,85.03567 -90.4136,58.65256 -28.4465,-26.38311 59.1974,-56.50135 51.6913,-94.56617 -7.5061,-38.06481 -100.0227,-32.65679 -83.7213,-67.86384 16.3014,-35.20706 72.029,38.84017 105.9113,19.93878 33.8823,-18.90139 0.1497,-105.21868 38.671,-100.59472 38.5213,4.62396 -14.681,80.5059 13.7655,106.88901 z"
         transform="matrix(0.81948115,0,0,0.81948115,347.59269,199.17807)" /><ellipse
         style="display:inline;fill:none;stroke:#478cbf;stroke-width:39.0396;stroke-dasharray:none;stroke-opacity:1"
         id="ellipse1670"
         cx="1517.9486"
         cy="906.92896"
         rx="110.88474"
         ry="110.8835" /></g></g><path
     id="rect1824"
     style="display:inline;fill:none;fill-opacity:1;stroke:#202531;stroke-width:6.17335;stroke-linecap:round;stroke-miterlimit:3.2;stroke-dasharray:none;stroke-opacity:1;paint-order:markers fill stroke"
     d="M 19.80531,3.1285845 C 13.826886,3.3602785 8.2067139,6.8574146 5.3930477,11.881015 3.6104812,14.908648 2.9555588,18.43044 3.1081561,21.876984 c 0.00877,28.738976 -0.017547,57.47837 0.013157,86.217086 0.1230417,6.15079 3.8814633,12.14617 9.6401889,14.95253 2.893102,1.48854 6.224137,1.9804 9.478293,1.84467 28.56232,-0.009 57.125115,0.0175 85.687145,-0.0132 6.10854,-0.12975 11.88739,-3.70117 14.72613,-8.84305 1.77321,-3.03617 2.39243,-6.56461 2.23712,-10.01097 -0.009,-28.737021 0.019,-57.474432 -0.0142,-86.211187 -0.1587,-6.119498 -3.91024,-12.0697131 -9.64183,-14.8603545 -2.89271,-1.4851298 -6.2208,-1.9804038 -9.47356,-1.8437707 -28.562336,0.00871 -57.12513,-0.01744 -85.687156,0.01307 -0.08938,0.00221 -0.17877,0.00444 -0.268154,0.00664 z" /></svg>
