<?xml version="1.0" encoding="UTF-8" standalone="no"?>
<!-- Created with Inkscape (http://www.inkscape.org/) -->

<svg
   version="1.1"
   id="svg427"
   width="720"
   height="241.358"
   viewBox="0 0 720 241.358"
   sodipodi:docname="car.svg"
   inkscape:version="1.2.2 (1:1.2.2+202212051552+b0a8486541)"
   xml:space="preserve"
   xmlns:inkscape="http://www.inkscape.org/namespaces/inkscape"
   xmlns:sodipodi="http://sodipodi.sourceforge.net/DTD/sodipodi-0.dtd"
   xmlns:xlink="http://www.w3.org/1999/xlink"
   xmlns="http://www.w3.org/2000/svg"
   xmlns:svg="http://www.w3.org/2000/svg"><sodipodi:namedview
     id="namedview710"
     pagecolor="#ffffff"
     bordercolor="#000000"
     borderopacity="0.25"
     inkscape:showpageshadow="2"
     inkscape:pageopacity="0.0"
     inkscape:pagecheckerboard="0"
     inkscape:deskcolor="#d1d1d1"
     showgrid="false"
     inkscape:zoom="2.4390009"
     inkscape:cx="99.496788"
     inkscape:cy="79.03424"
     inkscape:window-width="1920"
     inkscape:window-height="991"
     inkscape:window-x="0"
     inkscape:window-y="0"
     inkscape:window-maximized="1"
     inkscape:current-layer="svg427"
     inkscape:rotation="-1" /><defs
     id="defs431"><clipPath
       clipPathUnits="userSpaceOnUse"
       id="clipPath1044"><g
         inkscape:label="Clip"
         id="use1046"
         style="display:inline"><g
           id="g3524"
           style="display:inline;fill:#999999"
           transform="matrix(0.38823494,0,0,0.38823494,-9.9547257,-133.32589)"><path
             style="display:inline;fill:#999999"
             d="m 342.9378,393.37909 c 33.36554,-7.71097 104.55937,-17.31229 229.96157,-26.79387 125.4022,-9.48157 305.00548,-18.84309 433.34813,3.44812 128.3426,22.29121 205.4177,76.23231 262.268,114.5805 56.8502,38.34818 93.4724,61.1015 117.9741,72.21285 24.5018,11.11135 36.8822,10.58109 89.3682,16.51971 52.4861,5.93862 145.0738,18.34542 211.1338,35.90394 66.06,17.55851 105.5887,40.26704 131.2153,56.16954 25.6266,15.9025 37.35,24.99802 43.5249,65.72263 6.1748,40.72462 6.802,113.07512 3.9249,150.81864 -2.8772,37.74353 -9.2588,40.8797 -30.5735,46.70296 -21.3148,5.82327 -57.5614,14.33318 -83.4119,18.29635 -25.8505,3.96317 -41.3039,3.37926 -69.0745,3.93521 -27.7706,0.55595 -67.8566,2.25179 -126.706,0.65006 -58.8493,-1.60173 -136.4582,-6.50096 -307.5779,-11.69584 -171.1196,-5.19488 -435.73762,-10.68504 -619.91453,-14.43776 -184.17691,-3.75271 -287.90322,-5.7678 -343.21866,-6.67775 -55.31543,-0.90995 -62.21757,-0.71469 -92.08802,-2.85944 -29.87045,-2.14476 -82.70601,-6.62938 -110.119208,-19.67375 -27.413195,-13.04437 -29.399746,-34.6479 -31.070899,-52.89136 -1.671153,-18.24346 -3.026734,-33.12496 -6.527624,-52.5568 -3.50089,-19.43185 -9.147011,-43.41287 -5.86521,-57.77157 3.281801,-14.3587 15.490892,-19.09304 22.524972,-26.0057 7.034079,-6.91266 8.893518,-16.00415 12.465198,-27.38503 3.571681,-11.38089 8.8553,-25.04994 8.942189,-45.74113 0.08689,-20.69119 -5.023374,-48.40265 33.287192,-86.42785 38.31057,-38.02519 120.03893,-86.35918 158.67282,-113.43572 38.6339,-27.07654 34.17115,-32.89596 67.53668,-40.60694 z"
             id="path3522" /></g></g></clipPath><inkscape:path-effect
       effect="bspline"
       id="path-effect2871"
       is_visible="true"
       lpeversion="1"
       weight="33.333333"
       steps="2"
       helper_size="0"
       apply_no_weight="true"
       apply_with_weight="true"
       only_selected="false" /><inkscape:path-effect
       effect="bspline"
       id="path-effect697"
       is_visible="true"
       lpeversion="1"
       weight="33.333333"
       steps="2"
       helper_size="0"
       apply_no_weight="true"
       apply_with_weight="true"
       only_selected="false" /><inkscape:path-effect
       effect="bspline"
       id="path-effect545"
       is_visible="true"
       lpeversion="1"
       weight="33.333333"
       steps="2"
       helper_size="0"
       apply_no_weight="true"
       apply_with_weight="true"
       only_selected="false" /><inkscape:path-effect
       effect="bspline"
       id="path-effect697-3"
       is_visible="true"
       lpeversion="1"
       weight="33.333333"
       steps="2"
       helper_size="0"
       apply_no_weight="true"
       apply_with_weight="true"
       only_selected="false" /><filter
       style="color-interpolation-filters:sRGB;"
       inkscape:label="Duochrome"
       id="filter6156"
       x="0"
       y="0"
       width="1"
       height="1"><feColorMatrix
         type="hueRotate"
         values="180"
         result="color1"
         id="feColorMatrix6152" /><feColorMatrix
         values="-1 0 0 0 1 0 -1 0 0 1 0 0 -1 0 1 -0.21 -0.72 -0.07 2 0 "
         result="fbSourceGraphic"
         id="feColorMatrix6154" /><feColorMatrix
         result="fbSourceGraphicAlpha"
         in="fbSourceGraphic"
         values="0 0 0 -1 0 0 0 0 -1 0 0 0 0 -1 0 0 0 0 1 0"
         id="feColorMatrix6158" /><feColorMatrix
         id="feColorMatrix6160"
         type="hueRotate"
         values="180"
         result="color1"
         in="fbSourceGraphic" /><feColorMatrix
         id="feColorMatrix6162"
         values="-1 0 0 0 1 0 -1 0 0 1 0 0 -1 0 1 -0.21 -0.72 -0.07 2 0 "
         result="fbSourceGraphic" /><feColorMatrix
         result="fbSourceGraphicAlpha"
         in="fbSourceGraphic"
         values="0 0 0 -1 0 0 0 0 -1 0 0 0 0 -1 0 0 0 0 1 0"
         id="feColorMatrix6164" /><feColorMatrix
         id="feColorMatrix6166"
         type="hueRotate"
         values="180"
         result="color1"
         in="fbSourceGraphic" /><feColorMatrix
         id="feColorMatrix6168"
         values="-1 0 0 0 1 0 -1 0 0 1 0 0 -1 0 1 -0.21 -0.72 -0.07 2 0 "
         result="fbSourceGraphic" /><feColorMatrix
         result="fbSourceGraphicAlpha"
         in="fbSourceGraphic"
         values="0 0 0 -1 0 0 0 0 -1 0 0 0 0 -1 0 0 0 0 1 0"
         id="feColorMatrix9356" /><feColorMatrix
         id="feColorMatrix9358"
         type="luminanceToAlpha"
         result="colormatrix1"
         in="fbSourceGraphic" /><feFlood
         id="feFlood9360"
         flood-opacity="1"
         flood-color="rgb(81,81,245)"
         result="flood1" /><feComposite
         in2="colormatrix1"
         id="feComposite9362"
         operator="out"
         result="composite1" /><feFlood
         id="feFlood9364"
         flood-opacity="1"
         flood-color="rgb(255,0,0)"
         result="flood2" /><feComposite
         in2="colormatrix1"
         id="feComposite9366"
         result="composite2"
         operator="in" /><feComposite
         in2="composite1"
         id="feComposite9368"
         in="composite2"
         k2="1"
         k3="1"
         operator="arithmetic"
         result="composite3" /><feColorMatrix
         id="feColorMatrix9370"
         in="composite3"
         type="matrix"
         values="2 -1 0 0 0 0 2 -1 0 0 -1 0 2 0 0 0 0 0 1 0 "
         result="colormatrix2" /><feComposite
         in2="composite3"
         id="feComposite9372"
         in="colormatrix2"
         operator="arithmetic"
         k2="0"
         result="composite4" /><feBlend
         in2="composite3"
         id="feBlend9374"
         in="composite4"
         mode="normal"
         result="blend" /><feComposite
         in2="fbSourceGraphic"
         id="feComposite9376"
         operator="in" /></filter><clipPath
       clipPathUnits="userSpaceOnUse"
       id="clipPath11239"><g
         inkscape:label="clip"
         id="use11241"
         style="display:inline" /></clipPath><clipPath
       clipPathUnits="userSpaceOnUse"
       id="clipPath457"><use
         x="0"
         y="0"
         xlink:href="#g453"
         id="use459" /></clipPath></defs><g
     id="g455"
     clip-path="url(#clipPath457)"
     inkscape:label="car"><g
       inkscape:label="Clip"
       id="g453"><path
         style="display:inline;opacity:1;fill:#666666;stroke:#666666;stroke-width:0;stroke-linejoin:bevel;stroke-miterlimit:3.2;stroke-dasharray:none;paint-order:markers fill stroke"
         d="m 610.92921,96.022799 c 68.7373,15.344171 86.89711,27.656541 94.11811,36.509271 7.22101,8.85272 13.57699,35.4614 12.17945,57.58541 -1.39753,22.12401 -1.54977,31.35838 -5.27464,32.88159 -3.72487,1.52321 -29.78085,8.8609 -54.84882,11.59452 -9.68561,1.0562 -38.70538,-2.36182 -78.26868,-3.26308 -39.56331,-0.90127 -64.4296,0.48607 -85.50576,-0.18601 -42.15231,-1.34417 -202.76712,-4.94014 -273.67604,-5.69962 -35.45446,-0.37974 -38.56226,-5.50636 -78.72643,-5.76816 -40.16416,-0.2618 -54.955177,3.35142 -74.247196,1.72797 -31.82513,-2.67812 -52.955974,-13.79403 -59.6659567,-32.94857 -2.662773,-7.60124 1.863836,-3.32193 -0.1369189,-16.74894 -2.0007549,-13.427 -1.1924804,-19.37371 3.1060951,-23.97368 5.8629195,-5.58313 11.0800245,-17.0444 12.3836935,-22.5526 1.738403,-7.9836 2.653124,-6.67492 0.0051,-8.4387 -2.648044,-1.76377 -5.567022,-5.01619 -3.335515,-12.7797 2.231508,-7.763514 3.678888,-16.205887 12.031116,-22.237398 8.352228,-6.03151 13.425653,-6.329646 13.425653,-6.329646 0,0 20.111733,-16.620744 44.426578,-31.404405 24.314841,-14.783661 27.449511,-16.419125 27.449511,-16.419125 0,0 -7.80598,-2.731183 -6.95702,-6.215816 0.84896,-3.484634 15.67799,-2.396583 47.16831,-7.06175 31.4903,-4.665167 101.71672,-13.51360937 184.50621,-7.2302883 82.41169,6.2546473 106.67937,26.8424573 141.1955,47.9176133 24.88178,15.192533 50.5614,31.39524 50.5614,31.39524 0,0 16.36253,-4.132662 78.08625,9.645874 z"
         id="path45387"
         sodipodi:nodetypes="sssssssszsssccssscscsssscs"
         transform="translate(-3.4041319e-8)"
         inkscape:label="body" /></g><g
       id="g11662"
       style="display:inline;fill:#999999"
       inkscape:label="rim"
       transform="matrix(0.38791178,0,0,0.38791178,-9.4804111,-132.94612)"><path
         style="display:inline;opacity:1;fill:#999999;stroke-width:0;stroke-linecap:round;stroke-miterlimit:3.2;paint-order:markers fill stroke"
         d="m 37.779907,794.90353 c 110.725563,46.25197 539.128013,54.10815 932.713663,69.83914 393.58563,15.73099 768.78963,30.52743 786.67883,28.36271 17.8892,-2.16473 1.4797,17.71804 37.5599,26.44994 22.1241,5.35433 83.2644,-7.35385 83.2644,-7.35385 L 1864.8736,983.39385 51.772394,946.17229 Z"
         id="path11608"
         sodipodi:nodetypes="czzscccc" /><path
         id="path2640"
         style="display:inline;opacity:1;fill:#999999;stroke-width:0;stroke-linecap:round;stroke-miterlimit:3.2;paint-order:markers fill stroke"
         d="m 1519.0893,698.19062 c 108.0712,0 186.3752,73.71815 195.0744,189.54554 12.912,171.91364 -7.9265,165.36084 -196.257,159.75834 -188.3306,-5.6024 -223.2067,20.3438 -196.5344,-163.25204 16.4115,-112.96707 89.6459,-186.05184 197.717,-186.05184 z"
         sodipodi:nodetypes="sszss" /><path
         id="path2642"
         style="display:inline;opacity:1;fill:#999999;stroke-width:0;stroke-linecap:round;stroke-miterlimit:3.2;paint-order:markers fill stroke"
         d="m 384.21526,685.31431 c 110.03128,1.00106 188.6542,76.5582 200.20527,193.40167 16.9581,171.53772 -9.65568,165.37462 -201.40946,159.71092 -191.75388,-5.6635 -215.06311,10.2721 -200.10685,-165.03209 9.81449,-115.03702 89.42654,-189.09841 201.31104,-188.0805 z"
         sodipodi:nodetypes="sszss" /></g><g
       id="g12200"
       style="display:inline;fill:#808080"
       transform="matrix(0.38791178,0,0,0.38791178,-9.4803936,-132.94612)"
       inkscape:label="windshield"><path
         style="opacity:1;fill:#808080;stroke-width:0;stroke-linecap:round;stroke-miterlimit:3.2;paint-order:markers fill stroke"
         d="m 351.61503,531.23453 c -3.72968,-7.78766 30.36944,-29.42418 77.9162,-67.98949 47.54677,-38.56531 77.18146,-61.20679 217.27193,-69.89308 140.09048,-8.68629 328.32397,-14.10702 419.96634,22.8101 130.1522,52.43042 241.6626,160.90895 235.0422,166.47298 -6.6204,5.56403 -324.54864,-19.33369 -508.43415,-28.28361 -183.88552,-8.94992 -434.65386,-17.52914 -441.76252,-23.1169 z"
         id="path12038"
         sodipodi:nodetypes="cssszsc" /><path
         style="opacity:1;fill:#808080;stroke-width:0;stroke-linecap:round;stroke-miterlimit:3.2;paint-order:markers fill stroke"
         d="m 112.30074,534.22146 c 75.44525,1.55821 75.3322,3.47526 75.3322,3.47526 0,0 54.14268,-36.53279 99.0272,-65.99042 44.88451,-29.45764 72.04506,-45.03591 72.04506,-45.03591 0,0 -46.76309,-13.92959 -63.85369,-31.52093 -17.0906,-17.59133 -182.55077,139.072 -182.55077,139.072 z"
         id="path12196"
         sodipodi:nodetypes="ccscsc" /><path
         style="display:inline;opacity:1;fill:#808080;stroke-width:0;stroke-linecap:round;stroke-miterlimit:3.2;paint-order:markers fill stroke"
         d="m 1146.0793,390.19719 c -38.7835,19.00924 -45.0097,21.89862 -45.0097,21.89862 0,0 62.0281,30.71418 124.9796,73.17662 62.9515,42.46244 91.8318,75.62067 121.749,86.66323 29.9172,11.04256 52.3617,-7.74719 52.3617,-7.74719 z"
         id="path12260"
         transform="translate(-4.511335e-5)"
         sodipodi:nodetypes="ccsscc" /></g><g
       id="g2849"
       inkscape:label="light"
       style="display:inline;fill:#4d4d4d"
       transform="matrix(0.38791178,0,0,0.38791178,-9.4804111,-132.94612)"><path
         style="display:inline;opacity:1;fill:#4d4d4d;stroke-width:0;stroke-linecap:round;stroke-miterlimit:3.2;paint-order:markers fill stroke"
         d="m 1736.9567,738.378 c 0,0 95.2893,5.55701 97.9562,1.28977 2.6668,-4.26724 -2.3508,-45.76818 -2.3508,-45.76818 0,0 0.1394,-7.89803 -73.2695,-13.26759 -73.4089,-5.36956 -74.1904,-7.21347 -22.3359,57.746 z"
         id="path11882"
         sodipodi:nodetypes="csczc"
         transform="translate(4.5e-5)" /><path
         style="display:inline;fill:#4d4d4d;stroke:none;stroke-width:0;stroke-linecap:round;stroke-miterlimit:3.2;stroke-dasharray:none;paint-order:markers fill stroke"
         d="m 63.89021,606.82903 c 24.096178,-29.82258 125.88336,-25.25271 125.88336,-25.25271 0,0 -6.49015,17.21463 -17.22021,39.58761 -10.73006,22.373 -17.75341,32.57839 -17.75341,32.57839 0,0 -46.23957,-1.86858 -71.18628,-7.91544 C 60.143459,640.1379 63.89021,606.82903 63.89021,606.82903 Z"
         id="path961"
         inkscape:label="path961"
         sodipodi:nodetypes="ccscsc" /></g><g
       id="g2014"
       style="display:inline;fill:#666666"
       inkscape:label="cutout"
       transform="matrix(0.38791178,0,0,0.38791178,-9.4804111,-132.94612)"><path
         id="rect2010"
         style="opacity:1;stroke-width:0;stroke-linecap:round;stroke-miterlimit:3.2;paint-order:markers fill stroke;fill:#666666"
         d="m 1520.4102,721.49463 c 95.7458,0 165.1192,63.93985 172.8264,164.40338 11.4393,149.11029 -7.0226,143.42669 -173.8742,138.56729 -166.8517,-4.8593 -197.7502,17.6453 -174.1199,-141.59757 14.5398,-97.98262 79.4219,-161.3731 175.1677,-161.3731 z"
         sodipodi:nodetypes="sszss" /><path
         id="path2578"
         style="opacity:1;stroke-width:0;stroke-linecap:round;stroke-miterlimit:3.2;paint-order:markers fill stroke;fill:#666666"
         d="m 384.18379,710.72184 c 96.7642,0.85891 165.90711,65.68695 176.0654,165.93866 14.91337,147.1794 -8.49144,141.8914 -177.12439,137.032 -168.63305,-4.8593 -189.13175,8.8135 -175.97885,-141.59756 8.63111,-98.70178 78.64388,-162.24647 177.03784,-161.3731 z"
         sodipodi:nodetypes="sszss" /></g><path
       style="display:inline;opacity:1;fill:#808080;stroke:#666666;stroke-width:0;stroke-linejoin:bevel;stroke-miterlimit:3.2;stroke-dasharray:none;paint-order:markers fill stroke"
       d="m 1770.1625,848.31844 c 10.5327,51.21783 21.6151,56.7347 62.0989,51.21035 40.4838,-5.52434 31.3567,-82.75812 31.3567,-82.75812 0,0 -54.5981,1.05826 -77.6061,2.96516 -23.008,1.90693 -17.4369,13.93276 -15.8495,28.58261 z"
       id="path45982"
       transform="matrix(0.38791178,0,0,0.38791178,-9.4804111,-132.94612)" /></g></svg>
