<?xml version="1.0" encoding="UTF-8" standalone="no"?>
<!-- Created with Inkscape (http://www.inkscape.org/) -->

<svg
   version="1.1"
   id="svg427"
   width="720"
   height="241.358"
   viewBox="0 0 720 241.358"
   xmlns="http://www.w3.org/2000/svg"
   xmlns:svg="http://www.w3.org/2000/svg">
  <defs
     id="defs431" />
  <g
     id="g433"
     style="display:inline"
     transform="matrix(0.38823494,0,0,0.38823494,-9.9547257,-133.32589)">
    <path
       style="display:inline;fill:#cccccc"
       d="m 342.9378,393.37909 c 33.36554,-7.71097 104.55937,-17.31229 229.96157,-26.79387 125.4022,-9.48157 305.00548,-18.84309 433.34813,3.44812 128.3426,22.29121 205.4177,76.23231 262.268,114.5805 56.8502,38.34818 93.4724,61.1015 117.9741,72.21285 24.5018,11.11135 36.8822,10.58109 89.3682,16.51971 52.4861,5.93862 145.0738,18.34542 211.1338,35.90394 66.06,17.55851 105.5887,40.26704 131.2153,56.16954 25.6266,15.9025 37.35,24.99802 43.5249,65.72263 6.1748,40.72462 6.802,113.07512 3.9249,150.81864 -2.8772,37.74353 -9.2588,40.8797 -30.5735,46.70296 -21.3148,5.82327 -57.5614,14.33318 -83.4119,18.29635 -25.8505,3.96317 -41.3039,3.37926 -69.0745,3.93521 -27.7706,0.55595 -67.8566,2.25179 -126.706,0.65006 -58.8493,-1.60173 -136.4582,-6.50096 -307.5779,-11.69584 -171.1196,-5.19488 -435.73762,-10.68504 -619.91453,-14.43776 -184.17691,-3.75271 -287.90322,-5.7678 -343.21866,-6.67775 -55.31543,-0.90995 -62.21757,-0.71469 -92.08802,-2.85944 -29.87045,-2.14476 -82.70601,-6.62938 -110.119208,-19.67375 -27.413195,-13.04437 -29.399746,-34.6479 -31.070899,-52.89136 -1.671153,-18.24346 -3.026734,-33.12496 -6.527624,-52.5568 -3.50089,-19.43185 -9.147011,-43.41287 -5.86521,-57.77157 3.281801,-14.3587 15.490892,-19.09304 22.524972,-26.0057 7.034079,-6.91266 8.893518,-16.00415 12.465198,-27.38503 3.571681,-11.38089 8.8553,-25.04994 8.942189,-45.74113 0.08689,-20.69119 -5.023374,-48.40265 33.287192,-86.42785 38.31057,-38.02519 120.03893,-86.35918 158.67282,-113.43572 38.6339,-27.07654 34.17115,-32.89596 67.53668,-40.60694 z"
       id="path543" />
    <path
       style="display:inline;fill:#b3b3b3"
       d="m 204.46898,918.79851 c 2.68585,-53.54899 5.3716,-107.09597 35.9001,-145.74443 30.52851,-38.64846 88.89556,-62.39275 144.83966,-61.24512 55.9441,1.14763 109.45783,27.18623 138.98296,66.86078 29.52512,39.67454 35.05919,92.97973 40.59348,146.28708 0,0 -360.3162,-6.15831 -360.3162,-6.15831 z"
       id="path695" />
    <path
       style="display:inline;fill:#b3b3b3"
       d="m 1339.9099,942.21066 c 2.6858,-53.54899 5.3716,-107.09597 35.1178,-149.08657 29.7462,-41.9906 86.5488,-72.41872 144.1463,-72.98545 57.5975,-0.56672 115.982,28.72731 145.2,72.22028 29.218,43.49296 29.267,101.17922 29.3161,158.86769 0,0 -353.7802,-9.01595 -353.7802,-9.01595 z"
       id="path695-6" />
  </g>
</svg>
